<mxfile host="app.diagrams.net" modified="2023-08-27T17:33:11.314Z" agent="Mozilla/5.0 (Windows NT 10.0; Win64; x64) AppleWebKit/537.36 (KHTML, like Gecko) Chrome/116.0.0.0 Safari/537.36" etag="i_s69-H9UQSy-rNawq-I" version="21.5.2" type="device">
  <diagram name="PÃ¡gina-1" id="vIhdIsjhR6K27RRLK8-8">
    <mxGraphModel dx="794" dy="1127" grid="1" gridSize="10" guides="1" tooltips="1" connect="1" arrows="1" fold="1" page="1" pageScale="1" pageWidth="827" pageHeight="1169" math="0" shadow="0">
      <root>
        <mxCell id="0" />
        <mxCell id="1" parent="0" />
        <mxCell id="dcP6d3QJz4AtEtqerjz--7" style="edgeStyle=orthogonalEdgeStyle;rounded=0;orthogonalLoop=1;jettySize=auto;html=1;entryX=0;entryY=0.5;entryDx=0;entryDy=0;" edge="1" parent="1" source="dcP6d3QJz4AtEtqerjz--1" target="dcP6d3QJz4AtEtqerjz--4">
          <mxGeometry relative="1" as="geometry" />
        </mxCell>
        <mxCell id="dcP6d3QJz4AtEtqerjz--1" value="Comprador" style="shape=umlActor;verticalLabelPosition=bottom;verticalAlign=top;html=1;outlineConnect=0;" vertex="1" parent="1">
          <mxGeometry x="170" y="460" width="30" height="60" as="geometry" />
        </mxCell>
        <mxCell id="dcP6d3QJz4AtEtqerjz--6" style="edgeStyle=orthogonalEdgeStyle;rounded=0;orthogonalLoop=1;jettySize=auto;html=1;entryX=1;entryY=0.5;entryDx=0;entryDy=0;" edge="1" parent="1" source="dcP6d3QJz4AtEtqerjz--2" target="dcP6d3QJz4AtEtqerjz--5">
          <mxGeometry relative="1" as="geometry" />
        </mxCell>
        <mxCell id="dcP6d3QJz4AtEtqerjz--17" style="edgeStyle=orthogonalEdgeStyle;rounded=0;orthogonalLoop=1;jettySize=auto;html=1;entryX=1;entryY=0.5;entryDx=0;entryDy=0;" edge="1" parent="1" source="dcP6d3QJz4AtEtqerjz--2" target="dcP6d3QJz4AtEtqerjz--16">
          <mxGeometry relative="1" as="geometry">
            <Array as="points">
              <mxPoint x="725" y="370" />
            </Array>
          </mxGeometry>
        </mxCell>
        <mxCell id="dcP6d3QJz4AtEtqerjz--20" style="edgeStyle=orthogonalEdgeStyle;rounded=0;orthogonalLoop=1;jettySize=auto;html=1;entryX=1;entryY=0.5;entryDx=0;entryDy=0;" edge="1" parent="1" source="dcP6d3QJz4AtEtqerjz--2" target="dcP6d3QJz4AtEtqerjz--19">
          <mxGeometry relative="1" as="geometry">
            <Array as="points">
              <mxPoint x="725" y="830" />
            </Array>
          </mxGeometry>
        </mxCell>
        <mxCell id="dcP6d3QJz4AtEtqerjz--2" value="Vendedor" style="shape=umlActor;verticalLabelPosition=bottom;verticalAlign=top;html=1;outlineConnect=0;" vertex="1" parent="1">
          <mxGeometry x="710" y="460" width="30" height="60" as="geometry" />
        </mxCell>
        <mxCell id="dcP6d3QJz4AtEtqerjz--22" style="edgeStyle=orthogonalEdgeStyle;rounded=0;orthogonalLoop=1;jettySize=auto;html=1;entryX=0;entryY=0.5;entryDx=0;entryDy=0;" edge="1" parent="1" source="dcP6d3QJz4AtEtqerjz--4" target="dcP6d3QJz4AtEtqerjz--9">
          <mxGeometry relative="1" as="geometry">
            <Array as="points">
              <mxPoint x="320" y="590" />
            </Array>
          </mxGeometry>
        </mxCell>
        <mxCell id="dcP6d3QJz4AtEtqerjz--4" value="Realiza un pedido" style="ellipse;whiteSpace=wrap;html=1;aspect=fixed;" vertex="1" parent="1">
          <mxGeometry x="280" y="450" width="80" height="80" as="geometry" />
        </mxCell>
        <mxCell id="dcP6d3QJz4AtEtqerjz--11" style="edgeStyle=orthogonalEdgeStyle;rounded=0;orthogonalLoop=1;jettySize=auto;html=1;entryX=1;entryY=0.5;entryDx=0;entryDy=0;" edge="1" parent="1" source="dcP6d3QJz4AtEtqerjz--5" target="dcP6d3QJz4AtEtqerjz--9">
          <mxGeometry relative="1" as="geometry" />
        </mxCell>
        <mxCell id="dcP6d3QJz4AtEtqerjz--5" value="Registra el estado del pedido en la BD" style="ellipse;whiteSpace=wrap;html=1;aspect=fixed;" vertex="1" parent="1">
          <mxGeometry x="490" y="450" width="80" height="80" as="geometry" />
        </mxCell>
        <mxCell id="dcP6d3QJz4AtEtqerjz--13" value="" style="edgeStyle=orthogonalEdgeStyle;rounded=0;orthogonalLoop=1;jettySize=auto;html=1;" edge="1" parent="1" target="dcP6d3QJz4AtEtqerjz--12">
          <mxGeometry relative="1" as="geometry">
            <mxPoint x="530" y="590" as="sourcePoint" />
          </mxGeometry>
        </mxCell>
        <mxCell id="dcP6d3QJz4AtEtqerjz--9" value="Toma el pedido" style="ellipse;whiteSpace=wrap;html=1;aspect=fixed;" vertex="1" parent="1">
          <mxGeometry x="420" y="550" width="80" height="80" as="geometry" />
        </mxCell>
        <mxCell id="dcP6d3QJz4AtEtqerjz--15" value="" style="edgeStyle=orthogonalEdgeStyle;rounded=0;orthogonalLoop=1;jettySize=auto;html=1;" edge="1" parent="1" source="dcP6d3QJz4AtEtqerjz--12" target="dcP6d3QJz4AtEtqerjz--14">
          <mxGeometry relative="1" as="geometry" />
        </mxCell>
        <mxCell id="dcP6d3QJz4AtEtqerjz--12" value="Se actualiza el estado del producto en la BD" style="ellipse;whiteSpace=wrap;html=1;aspect=fixed;" vertex="1" parent="1">
          <mxGeometry x="490" y="670" width="80" height="80" as="geometry" />
        </mxCell>
        <mxCell id="dcP6d3QJz4AtEtqerjz--14" value="Se registran detalles de la compra" style="ellipse;whiteSpace=wrap;html=1;aspect=fixed;" vertex="1" parent="1">
          <mxGeometry x="600" y="670" width="80" height="80" as="geometry" />
        </mxCell>
        <mxCell id="dcP6d3QJz4AtEtqerjz--18" style="edgeStyle=orthogonalEdgeStyle;rounded=0;orthogonalLoop=1;jettySize=auto;html=1;entryX=0.5;entryY=0;entryDx=0;entryDy=0;" edge="1" parent="1" source="dcP6d3QJz4AtEtqerjz--16" target="dcP6d3QJz4AtEtqerjz--5">
          <mxGeometry relative="1" as="geometry">
            <Array as="points">
              <mxPoint x="530" y="370" />
            </Array>
          </mxGeometry>
        </mxCell>
        <mxCell id="dcP6d3QJz4AtEtqerjz--16" value="Ingresa en la BD" style="ellipse;whiteSpace=wrap;html=1;aspect=fixed;" vertex="1" parent="1">
          <mxGeometry x="570" y="330" width="80" height="80" as="geometry" />
        </mxCell>
        <mxCell id="dcP6d3QJz4AtEtqerjz--21" style="edgeStyle=orthogonalEdgeStyle;rounded=0;orthogonalLoop=1;jettySize=auto;html=1;" edge="1" parent="1" source="dcP6d3QJz4AtEtqerjz--19" target="dcP6d3QJz4AtEtqerjz--1">
          <mxGeometry relative="1" as="geometry" />
        </mxCell>
        <mxCell id="dcP6d3QJz4AtEtqerjz--19" value="Se entrega el pedido" style="ellipse;whiteSpace=wrap;html=1;aspect=fixed;" vertex="1" parent="1">
          <mxGeometry x="540" y="790" width="80" height="80" as="geometry" />
        </mxCell>
      </root>
    </mxGraphModel>
  </diagram>
</mxfile>
